<svg viewBox="0 0 360 230" width="360" height="230" font-family="Arial,sans-serif" xmlns="http://www.w3.org/2000/svg">
      <defs><marker id="wg04a" markerWidth="8" markerHeight="6" refX="7" refY="3" orient="auto"><polygon points="0 0,8 3,0 6" fill="#1FC8A5"/></marker></defs>
      <rect x="10" y="28" width="152" height="62" rx="8" fill="#0F2747"/>
      <rect x="10" y="28" width="152" height="20" rx="8" fill="#1C4D86"/>
      <circle cx="26" cy="38" r="4" fill="#FF8A65"/>
      <circle cx="40" cy="38" r="4" fill="#FFD166"/>
      <circle cx="54" cy="38" r="4" fill="#1FC8A5"/>
      <text x="20" y="64" font-size="11" fill="#1FC8A5" font-family="Courier New,monospace">$ uv add</text>
      <text x="20" y="80" font-size="10" fill="#9ED8FF" font-family="Courier New,monospace">langchain-openai</text>
      <line x1="86" y1="94" x2="86" y2="118" stroke="#1FC8A5" stroke-width="3" marker-end="url(#wg04a)"/>
      <rect x="10" y="124" width="152" height="54" rx="6" fill="#FFF4E0" stroke="#FFD27A" stroke-width="2"/>
      <text x="18" y="144" font-size="10" fill="#52708A">pyproject.toml</text>
      <rect x="18" y="150" width="130" height="8" rx="3" fill="#153B6B"/>
      <rect x="18" y="163" width="106" height="8" rx="3" fill="#153B6B"/>
      <line x1="168" y1="150" x2="190" y2="150" stroke="#1FC8A5" stroke-width="3" marker-end="url(#wg04a)"/>
      <text x="178" y="140" text-anchor="middle" font-size="9" fill="#1FC8A5">import</text>
      <rect x="196" y="56" width="152" height="94" rx="8" fill="#EAF5FF" stroke="#7FB4F0" stroke-width="2"/>
      <text x="272" y="76" text-anchor="middle" font-size="10" fill="#52708A">main.py 頂端</text>
      <rect x="204" y="84" width="136" height="14" rx="4" fill="#1FC8A5"/>
      <text x="272" y="95" text-anchor="middle" font-size="9" fill="white">from langchain_openai</text>
      <rect x="204" y="102" width="136" height="14" rx="4" fill="#1FC8A5" opacity="0.8"/>
      <text x="272" y="113" text-anchor="middle" font-size="9" fill="white">import ChatOpenAI</text>
      <rect x="204" y="120" width="136" height="14" rx="4" fill="#7FB4F0"/>
      <text x="272" y="131" text-anchor="middle" font-size="9" fill="white">from dotenv import ...</text>
      <text x="180" y="210" text-anchor="middle" font-size="11" fill="#52708A">先安裝、再 import，順序不能反</text>
    </svg>