<svg viewBox="0 0 360 230" width="360" height="230" font-family="Arial,sans-serif" xmlns="http://www.w3.org/2000/svg">
      <rect x="10" y="26" width="158" height="172" rx="10" fill="#EAF5FF" stroke="#7FB4F0" stroke-width="2"/>
      <text x="89" y="48" text-anchor="middle" font-size="13" fill="#153B6B">invoke()</text>
      <text x="89" y="64" text-anchor="middle" font-size="9" fill="#52708A">等全部完成後一次取得</text>
      <rect x="22" y="76" width="134" height="98" rx="6" fill="#7FB4F0"/>
      <text x="89" y="118" text-anchor="middle" font-size="11" fill="white">整段文字</text>
      <text x="89" y="136" text-anchor="middle" font-size="11" fill="white">一次跳出</text>
      <text x="89" y="212" text-anchor="middle" font-size="10" fill="#52708A">⬜ 一次出現</text>
      <line x1="180" y1="20" x2="180" y2="210" stroke="#D5E7F7" stroke-width="2" stroke-dasharray="5,4"/>
      <rect x="192" y="26" width="158" height="172" rx="10" fill="#EAF8F5" stroke="#8EE0D0" stroke-width="2"/>
      <text x="271" y="48" text-anchor="middle" font-size="13" fill="#153B6B">stream()</text>
      <text x="271" y="64" text-anchor="middle" font-size="9" fill="#52708A">邊生成邊送出 token</text>
      <rect x="202" y="76" width="30" height="22" rx="4" fill="#1FC8A5"/>
      <rect x="236" y="76" width="38" height="22" rx="4" fill="#1FC8A5"/>
      <rect x="278" y="76" width="26" height="22" rx="4" fill="#1FC8A5"/>
      <rect x="308" y="76" width="32" height="22" rx="4" fill="#1FC8A5" opacity="0.7"/>
      <rect x="202" y="104" width="44" height="22" rx="4" fill="#1FC8A5" opacity="0.9"/>
      <rect x="250" y="104" width="30" height="22" rx="4" fill="#1FC8A5" opacity="0.6"/>
      <rect x="284" y="104" width="22" height="22" rx="4" fill="#1FC8A5" opacity="0.4"/>
      <rect x="202" y="132" width="28" height="22" rx="4" fill="#1FC8A5" opacity="0.5"/>
      <rect x="234" y="132" width="36" height="22" rx="4" fill="#1FC8A5" opacity="0.3"/>
      <text x="271" y="180" text-anchor="middle" font-size="8" fill="#52708A" font-family="Courier New,monospace">end="" flush=True</text>
      <text x="271" y="212" text-anchor="middle" font-size="10" fill="#52708A">⬛ 逐塊顯示（打字機）</text>
    </svg>